<mxfile host="app.diagrams.net" agent="Mozilla/5.0 (X11; Linux x86_64) AppleWebKit/537.36 (KHTML, like Gecko) Chrome/133.0.0.0 Safari/537.36" version="27.2.0">
  <diagram name="Page-1" id="56o65hLepXH7AnUzjwJp">
    <mxGraphModel dx="1151" dy="1226" grid="1" gridSize="10" guides="1" tooltips="1" connect="1" arrows="1" fold="1" page="1" pageScale="1" pageWidth="850" pageHeight="1100" math="0" shadow="0">
      <root>
        <mxCell id="0" />
        <mxCell id="1" parent="0" />
        <mxCell id="9cEksHvmdlTpC1DNvYb1-48" value="" style="edgeStyle=orthogonalEdgeStyle;rounded=0;orthogonalLoop=1;jettySize=auto;html=1;strokeColor=#DDA15E;fontColor=default;fillColor=#BC6C25;entryX=0.5;entryY=0;entryDx=0;entryDy=0;labelBackgroundColor=none;" edge="1" parent="1" source="9cEksHvmdlTpC1DNvYb1-49" target="9cEksHvmdlTpC1DNvYb1-51">
          <mxGeometry relative="1" as="geometry">
            <mxPoint x="303.5" y="260" as="targetPoint" />
          </mxGeometry>
        </mxCell>
        <mxCell id="9cEksHvmdlTpC1DNvYb1-49" value="&lt;font style=&quot;font-size: 18px; color: light-dark(rgb(26, 64, 255), rgb(0, 0, 0));&quot;&gt;&lt;b&gt;Start&lt;/b&gt;&lt;/font&gt;" style="rounded=1;whiteSpace=wrap;html=1;labelBackgroundColor=none;fillColor=#BC6C25;strokeColor=#DDA15E;fontColor=#FEFAE0;" vertex="1" parent="1">
          <mxGeometry x="265" y="190" width="75" height="40" as="geometry" />
        </mxCell>
        <mxCell id="9cEksHvmdlTpC1DNvYb1-62" value="" style="edgeStyle=orthogonalEdgeStyle;rounded=0;orthogonalLoop=1;jettySize=auto;html=1;labelBackgroundColor=none;strokeColor=#DDA15E;fontColor=default;" edge="1" parent="1" source="9cEksHvmdlTpC1DNvYb1-51" target="9cEksHvmdlTpC1DNvYb1-61">
          <mxGeometry relative="1" as="geometry" />
        </mxCell>
        <mxCell id="9cEksHvmdlTpC1DNvYb1-51" value="&lt;b style=&quot;color: rgb(0, 0, 0); font-size: 18px;&quot;&gt;Input lati, longi&lt;/b&gt;" style="shape=parallelogram;perimeter=parallelogramPerimeter;whiteSpace=wrap;html=1;fixedSize=1;labelBackgroundColor=none;fillColor=#BC6C25;strokeColor=#DDA15E;fontColor=#FEFAE0;" vertex="1" parent="1">
          <mxGeometry x="160.5" y="270" width="285" height="40" as="geometry" />
        </mxCell>
        <mxCell id="9cEksHvmdlTpC1DNvYb1-52" style="edgeStyle=orthogonalEdgeStyle;rounded=0;orthogonalLoop=1;jettySize=auto;html=1;exitX=1;exitY=0.5;exitDx=0;exitDy=0;entryX=0;entryY=0.5;entryDx=0;entryDy=0;strokeColor=#DDA15E;fontColor=default;fillColor=#BC6C25;labelBackgroundColor=none;" edge="1" parent="1" source="9cEksHvmdlTpC1DNvYb1-54" target="9cEksHvmdlTpC1DNvYb1-59">
          <mxGeometry relative="1" as="geometry">
            <mxPoint x="447.9999999999998" y="510" as="targetPoint" />
          </mxGeometry>
        </mxCell>
        <mxCell id="9cEksHvmdlTpC1DNvYb1-53" value="" style="edgeStyle=orthogonalEdgeStyle;rounded=0;orthogonalLoop=1;jettySize=auto;html=1;strokeColor=#DDA15E;fontColor=default;fillColor=#BC6C25;labelBackgroundColor=none;" edge="1" parent="1" source="9cEksHvmdlTpC1DNvYb1-54" target="9cEksHvmdlTpC1DNvYb1-56">
          <mxGeometry relative="1" as="geometry" />
        </mxCell>
        <mxCell id="9cEksHvmdlTpC1DNvYb1-54" value="&lt;b style=&quot;color: rgb(0, 0, 0); font-size: 18px;&quot;&gt;if lat&amp;gt;0&lt;/b&gt;" style="rhombus;whiteSpace=wrap;html=1;strokeColor=#DDA15E;fontColor=#FEFAE0;fillColor=#BC6C25;labelBackgroundColor=none;" vertex="1" parent="1">
          <mxGeometry x="250" y="460" width="100" height="100" as="geometry" />
        </mxCell>
        <mxCell id="9cEksHvmdlTpC1DNvYb1-55" value="" style="edgeStyle=orthogonalEdgeStyle;rounded=0;orthogonalLoop=1;jettySize=auto;html=1;strokeColor=#DDA15E;fontColor=default;fillColor=#BC6C25;labelBackgroundColor=none;" edge="1" parent="1" source="9cEksHvmdlTpC1DNvYb1-56" target="9cEksHvmdlTpC1DNvYb1-57">
          <mxGeometry relative="1" as="geometry" />
        </mxCell>
        <mxCell id="9cEksHvmdlTpC1DNvYb1-56" value="&lt;b style=&quot;color: rgb(0, 0, 0); font-size: 18px;&quot;&gt;below equator&lt;/b&gt;" style="shape=parallelogram;perimeter=parallelogramPerimeter;whiteSpace=wrap;html=1;fixedSize=1;labelBackgroundColor=none;fillColor=#BC6C25;strokeColor=#DDA15E;fontColor=#FEFAE0;" vertex="1" parent="1">
          <mxGeometry x="157" y="600" width="285" height="40" as="geometry" />
        </mxCell>
        <mxCell id="9cEksHvmdlTpC1DNvYb1-57" value="&lt;font style=&quot;font-size: 18px; color: light-dark(rgb(26, 64, 255), rgb(0, 0, 0));&quot;&gt;&lt;b&gt;Stop&lt;/b&gt;&lt;/font&gt;" style="rounded=1;whiteSpace=wrap;html=1;labelBackgroundColor=none;fillColor=#BC6C25;strokeColor=#DDA15E;fontColor=#FEFAE0;" vertex="1" parent="1">
          <mxGeometry x="262" y="680" width="75" height="40" as="geometry" />
        </mxCell>
        <mxCell id="9cEksHvmdlTpC1DNvYb1-58" value="YES" style="text;html=1;align=center;verticalAlign=middle;resizable=0;points=[];autosize=1;strokeColor=none;fillColor=none;labelBackgroundColor=none;fontColor=#FEFAE0;" vertex="1" parent="1">
          <mxGeometry x="376" y="480" width="50" height="30" as="geometry" />
        </mxCell>
        <mxCell id="9cEksHvmdlTpC1DNvYb1-64" style="edgeStyle=orthogonalEdgeStyle;rounded=0;orthogonalLoop=1;jettySize=auto;html=1;entryX=1;entryY=0.5;entryDx=0;entryDy=0;labelBackgroundColor=none;strokeColor=#DDA15E;fontColor=default;" edge="1" parent="1" source="9cEksHvmdlTpC1DNvYb1-59" target="9cEksHvmdlTpC1DNvYb1-57">
          <mxGeometry relative="1" as="geometry">
            <mxPoint x="550" y="700" as="targetPoint" />
            <Array as="points">
              <mxPoint x="550" y="700" />
            </Array>
          </mxGeometry>
        </mxCell>
        <mxCell id="9cEksHvmdlTpC1DNvYb1-59" value="&lt;b style=&quot;color: rgb(0, 0, 0); font-size: 18px;&quot;&gt;above equator&lt;/b&gt;" style="shape=parallelogram;perimeter=parallelogramPerimeter;whiteSpace=wrap;html=1;fixedSize=1;labelBackgroundColor=none;fillColor=#BC6C25;strokeColor=#DDA15E;fontColor=#FEFAE0;" vertex="1" parent="1">
          <mxGeometry x="440" y="490" width="220" height="40" as="geometry" />
        </mxCell>
        <mxCell id="9cEksHvmdlTpC1DNvYb1-60" value="NO" style="text;html=1;align=center;verticalAlign=middle;resizable=0;points=[];autosize=1;strokeColor=none;fillColor=none;fontColor=#FEFAE0;labelBackgroundColor=none;" vertex="1" parent="1">
          <mxGeometry x="298" y="568" width="40" height="30" as="geometry" />
        </mxCell>
        <mxCell id="9cEksHvmdlTpC1DNvYb1-65" value="" style="edgeStyle=orthogonalEdgeStyle;rounded=0;orthogonalLoop=1;jettySize=auto;html=1;labelBackgroundColor=none;strokeColor=#DDA15E;fontColor=default;" edge="1" parent="1" source="9cEksHvmdlTpC1DNvYb1-61" target="9cEksHvmdlTpC1DNvYb1-54">
          <mxGeometry relative="1" as="geometry" />
        </mxCell>
        <mxCell id="9cEksHvmdlTpC1DNvYb1-61" value="&lt;b style=&quot;color: rgb(0, 0, 0); font-size: 18px;&quot;&gt;longi = deg + (min / 60) + (sec / 3600);&lt;/b&gt;" style="rounded=0;whiteSpace=wrap;html=1;strokeColor=#DDA15E;fontColor=#FEFAE0;fillColor=#BC6C25;labelBackgroundColor=none;" vertex="1" parent="1">
          <mxGeometry x="160.5" y="360" width="285" height="40" as="geometry" />
        </mxCell>
      </root>
    </mxGraphModel>
  </diagram>
</mxfile>
